<?xml version="1.0" encoding="iso-8859-1"?>
<!-- Generator: Adobe Illustrator 22.0.0, SVG Export Plug-In . SVG Version: 6.00 Build 0)  -->
<svg xmlns="http://www.w3.org/2000/svg" xmlns:xlink="http://www.w3.org/1999/xlink" version="1.1" x="0px" y="0px" viewBox="0 0 60 60" style="enable-background:new 0 0 60 60;" xml:space="preserve" width="512" height="512">
<g id="_x36_-House">
	<g>
		<polygon style="fill:#E7ECED;" points="52,32 52,16 32,1 12,16 12,32   "/>
		<polygon style="fill:#E7ECED;" points="12,34 12,59 50,59 52,59 52,34   "/>
	</g>
	<rect x="12" y="31" style="fill:#736A76;" width="43" height="4"/>
	<polygon style="fill:#736A76;" points="46,4.995 46,11.495 52,15.995 52,4.995  "/>
	<path style="fill:#1081E0;" d="M8.007,19.995c-0.304,0-0.604-0.138-0.801-0.4c-0.331-0.442-0.242-1.069,0.2-1.4L31.4,0.2   c0.356-0.267,0.844-0.267,1.2,0l23.988,17.991c0.442,0.331,0.531,0.958,0.2,1.4c-0.331,0.442-0.958,0.532-1.4,0.2L32,2.25   L8.607,19.795C8.427,19.93,8.216,19.995,8.007,19.995z"/>
	<rect x="17" y="42" style="fill:#28384C;" width="12" height="10"/>
	<rect x="35" y="42" style="fill:#63393D;" width="12" height="17"/>
	<path style="fill:#DD352E;" d="M21,42c0,0,1,6-4,10V42H21z"/>
	<path style="fill:#DD352E;" d="M25,42c0,0-1,6,4,10V42H25z"/>
	<path style="fill:#736A76;" d="M30,53H16c-0.552,0-1-0.448-1-1s0.448-1,1-1h14c0.552,0,1,0.448,1,1S30.552,53,30,53z"/>
	<path style="fill:#EBBA16;" d="M47,52h-3c-0.552,0-1-0.448-1-1s0.448-1,1-1h3c0.552,0,1,0.448,1,1S47.552,52,47,52z"/>
	<path style="fill:#46AB6F;" d="M7,50L7,50c-2.75,0-5-2.25-5-5V32c0-2.75,2.25-5,5-5h0c2.75,0,5,2.25,5,5v13C12,47.75,9.75,50,7,50z   "/>
	<path style="fill:#63393D;" d="M7,60c-0.552,0-1-0.448-1-1V36c0-0.552,0.448-1,1-1s1,0.448,1,1v23C8,59.552,7.552,60,7,60z"/>
	<path style="fill:#63393D;" d="M7,43c-0.256,0-0.512-0.098-0.707-0.293c-0.391-0.391-0.391-1.023,0-1.414l2-2   c0.39-0.391,1.024-0.391,1.414,0c0.391,0.391,0.391,1.023,0,1.414l-2,2C7.512,42.902,7.256,43,7,43z"/>
	<path style="fill:#63393D;" d="M7,47c-0.256,0-0.512-0.098-0.707-0.293l-2-2c-0.391-0.391-0.391-1.023,0-1.414   c0.39-0.391,1.024-0.391,1.414,0l2,2c0.391,0.391,0.391,1.023,0,1.414C7.512,46.902,7.256,47,7,47z"/>
	<rect x="21" y="15" style="fill:#C6E2F7;" width="8" height="10"/>
	<path style="fill:#556080;" d="M25,23c-0.552,0-1-0.448-1-1v-3c0-0.552,0.448-1,1-1s1,0.448,1,1v3C26,22.552,25.552,23,25,23z"/>
	<rect x="21" y="15" style="fill:#7383BF;" width="8" height="5"/>
	<rect x="35" y="15" style="fill:#C6E2F7;" width="8" height="10"/>
	<path style="fill:#556080;" d="M39,23c-0.552,0-1-0.448-1-1v-3c0-0.552,0.448-1,1-1s1,0.448,1,1v3C40,22.552,39.552,23,39,23z"/>
	<rect x="35" y="15" style="fill:#7383BF;" width="8" height="5"/>
	<path style="fill:#7383BF;" d="M59,60H1c-0.552,0-1-0.448-1-1s0.448-1,1-1h58c0.552,0,1,0.448,1,1S59.552,60,59,60z"/>
</g>

</svg>
