<?xml version="1.0" encoding="iso-8859-1"?>
<!-- Generator: Adobe Illustrator 22.0.0, SVG Export Plug-In . SVG Version: 6.00 Build 0)  -->
<svg xmlns="http://www.w3.org/2000/svg" xmlns:xlink="http://www.w3.org/1999/xlink" version="1.1" x="0px" y="0px" viewBox="0 0 56 58" style="enable-background:new 0 0 56 58;" xml:space="preserve" width="512" height="512">
<g id="_x31_-Appartment_Building">
	<rect x="26" y="11" style="fill:#7C7C7C;" width="5" height="47"/>
	<polygon style="fill:#ECEAEC;" points="28,58 0,58 0,0 28,11  "/>
	<rect x="7" y="42" style="fill:#AFB6BB;" width="14" height="12"/>
	<polygon style="fill:#BCBBBC;" points="56,58 28,58 28,0 56,11  "/>
	<rect x="4" y="13" style="fill:#C6E2F7;" width="8" height="10"/>
	<path style="fill:#556080;" d="M8,21c-0.552,0-1-0.448-1-1v-3c0-0.552,0.448-1,1-1s1,0.448,1,1v3C9,20.552,8.552,21,8,21z"/>
	<rect x="5" y="54" style="fill:#736A76;" width="18" height="4"/>
	<rect x="11" y="46" style="fill:#808689;" width="6" height="8"/>
	<rect x="4" y="13" style="fill:#7383BF;" width="8" height="5"/>
	<rect x="16" y="13" style="fill:#C6E2F7;" width="8" height="10"/>
	<path style="fill:#556080;" d="M20,21c-0.552,0-1-0.448-1-1v-3c0-0.552,0.448-1,1-1s1,0.448,1,1v3C21,20.552,20.552,21,20,21z"/>
	<rect x="16" y="13" style="fill:#7383BF;" width="8" height="5"/>
	<rect x="4" y="28" style="fill:#C6E2F7;" width="8" height="10"/>
	<path style="fill:#556080;" d="M8,36c-0.552,0-1-0.448-1-1v-3c0-0.552,0.448-1,1-1s1,0.448,1,1v3C9,35.552,8.552,36,8,36z"/>
	<rect x="4" y="28" style="fill:#7383BF;" width="8" height="5"/>
	<rect x="16" y="28" style="fill:#C6E2F7;" width="8" height="10"/>
	<path style="fill:#556080;" d="M20,36c-0.552,0-1-0.448-1-1v-3c0-0.552,0.448-1,1-1s1,0.448,1,1v3C21,35.552,20.552,36,20,36z"/>
	<rect x="16" y="28" style="fill:#7383BF;" width="8" height="5"/>
	<rect x="32" y="13" style="fill:#C6E2F7;" width="8" height="10"/>
	<path style="fill:#556080;" d="M36,21c-0.552,0-1-0.448-1-1v-3c0-0.552,0.448-1,1-1s1,0.448,1,1v3C37,20.552,36.552,21,36,21z"/>
	<rect x="32" y="13" style="fill:#7383BF;" width="8" height="5"/>
	<rect x="44" y="13" style="fill:#C6E2F7;" width="8" height="10"/>
	<path style="fill:#556080;" d="M48,21c-0.552,0-1-0.448-1-1v-3c0-0.552,0.448-1,1-1s1,0.448,1,1v3C49,20.552,48.552,21,48,21z"/>
	<rect x="44" y="13" style="fill:#7383BF;" width="8" height="5"/>
	<rect x="32" y="28" style="fill:#C6E2F7;" width="8" height="10"/>
	<path style="fill:#556080;" d="M36,36c-0.552,0-1-0.448-1-1v-3c0-0.552,0.448-1,1-1s1,0.448,1,1v3C37,35.552,36.552,36,36,36z"/>
	<rect x="32" y="28" style="fill:#7383BF;" width="8" height="5"/>
	<rect x="44" y="28" style="fill:#C6E2F7;" width="8" height="10"/>
	<path style="fill:#556080;" d="M48,36c-0.552,0-1-0.448-1-1v-3c0-0.552,0.448-1,1-1s1,0.448,1,1v3C49,35.552,48.552,36,48,36z"/>
	<rect x="44" y="28" style="fill:#7383BF;" width="8" height="5"/>
	<rect x="35" y="42" style="fill:#9E9E9E;" width="14" height="12"/>
	<rect x="33" y="54" style="fill:#736A76;" width="18" height="4"/>
	<rect x="39" y="46" style="fill:#7C7C7C;" width="6" height="8"/>
</g>

</svg>
