<?xml version="1.0" encoding="UTF-8"?>
<svg xmlns="http://www.w3.org/2000/svg" xmlns:xlink="http://www.w3.org/1999/xlink" width="512" height="512" viewBox="0 0 60 60" version="1.1"><!-- Generator: Sketch 51.3 (57544) - http://www.bohemiancoding.com/sketch --><title>030 - House For Sale</title><desc>Created with Sketch.</desc><defs/><g id="Page-1" stroke="none" stroke-width="1" fill="none" fill-rule="evenodd"><g id="030---House-For-Sale" fill="#000000" fill-rule="nonzero"><path d="M40,0.384 C39.4194015,-0.130728837 38.5420802,-0.117718635 37.977,0.414 L18.476,19.4 C18.022944,19.8200209 17.873748,20.4748551 18.1001406,21.04968 C18.3265332,21.6245049 18.8822021,22.0017308 19.5,22 L20,22 L20,24 L12,24 C10.8954305,24 10,24.8954305 10,26 L10,30 L3,30 C1.34314575,30 2.02906125e-16,31.3431458 0,33 L0,49 C2.02906125e-16,50.6568542 1.34314575,52 3,52 L10,52 L10,57 C10,58.6568542 11.3431458,60 13,60 L19,60 C20.6568542,60 22,58.6568542 22,57 L22,52 L29,52 C30.2667854,51.9947486 31.3937454,51.1943509 31.816,50 L56,50 C57.1045695,50 58,49.1045695 58,48 L58,22 L58.5,22 C59.1137217,22.0009418 59.6661093,21.6279235 59.8945337,21.0582943 C60.1229581,20.488665 59.9813357,19.8373449 59.537,19.414 L40,0.384 Z M39,2.2 L57.273,20 L44,20 L44,14 C43.9999434,13.7348052 43.8945494,13.4804927 43.707,13.293 L39.707,9.293 C39.3165001,8.90261806 38.6834999,8.90261806 38.293,9.293 L34.293,13.293 C34.1054506,13.4804927 34.0000566,13.7348052 34,14 L34,20 L20.727,20 L39,2.2 Z M36,14.41 L39,11.41 L42,14.41 L42,26 L36,26 L36,14.41 Z M12,26 L20,26 L20,30 L12,30 L12,26 Z M20,57 C20,57.5522847 19.5522847,58 19,58 L13,58 C12.4477153,58 12,57.5522847 12,57 L12,52 L14,52 L14,55 C14,55.5522847 14.4477153,56 15,56 C15.5522847,56 16,55.5522847 16,55 L16,52 L20,52 L20,57 Z M29,50 L3,50 C2.44771525,50 2,49.5522847 2,49 L2,33 C2,32.4477153 2.44771525,32 3,32 L29,32 C29.5522847,32 30,32.4477153 30,33 L30,49 C30,49.5522847 29.5522847,50 29,50 Z M30,30.184 C29.679743,30.0655622 29.3414397,30.0033144 29,30 L26,30 L26,26 L30,26 L30,30.184 Z M42,48 L36,48 L36,36 L42,36 L42,48 Z M56,48 L44,48 L44,35.5 C44,34.6715729 43.3284271,34 42.5,34 L35.5,34 C34.6715729,34 34,34.6715729 34,35.5 L34,48 L32,48 L32,25 C32,24.4477153 31.5522847,24 31,24 L25,24 C24.4477153,24 24,24.4477153 24,25 L24,30 L22,30 L22,22 L34,22 L34,27 C34,27.5522847 34.4477153,28 35,28 L43,28 C43.5522847,28 44,27.5522847 44,27 L44,22 L56,22 L56,48 Z" id="Shape"/><path d="M40,18 L38,18 C37.4477153,18 37,18.4477153 37,19 C37,19.5522847 37.4477153,20 38,20 L40,20 C40.5522847,20 41,19.5522847 41,19 C41,18.4477153 40.5522847,18 40,18 Z" id="Shape"/><path d="M39.62,42.92 C39.7402223,42.971241 39.8693227,42.99842 40,43 C40.2660353,43.0027011 40.5219616,42.8982118 40.7100867,42.7100867 C40.8982118,42.5219616 41.0027011,42.2660353 41,42 C40.9982897,41.9362426 40.9916027,41.8727161 40.98,41.81 C40.9707292,41.7437653 40.9504496,41.6795467 40.92,41.62 C40.8981446,41.5562619 40.8678773,41.4957271 40.83,41.44 L40.71,41.29 C40.6143929,41.1996032 40.5023813,41.128323 40.38,41.08 C40.1365386,40.979982 39.8634614,40.979982 39.62,41.08 C39.4976187,41.128323 39.3856071,41.1996032 39.29,41.29 L39.17,41.44 C39.1321227,41.4957271 39.1018554,41.5562619 39.08,41.62 C39.0495504,41.6795467 39.0292708,41.7437653 39.02,41.81 C39.0083973,41.8727161 39.0017103,41.9362426 39,42 C39.0038804,42.2647269 39.107435,42.518257 39.29,42.71 C39.3872607,42.7982527 39.4988607,42.8692709 39.62,42.92 Z" id="Shape"/><path d="M47,45 L53,45 C53.5522847,45 54,44.5522847 54,44 L54,35 C54,34.4477153 53.5522847,34 53,34 L47,34 C46.4477153,34 46,34.4477153 46,35 L46,44 C46,44.5522847 46.4477153,45 47,45 Z M48,36 L52,36 L52,43 L48,43 L48,36 Z" id="Shape"/><path d="M47,32 L53,32 C53.5522847,32 54,31.5522847 54,31 L54,25 C54,24.4477153 53.5522847,24 53,24 L47,24 C46.4477153,24 46,24.4477153 46,25 L46,31 C46,31.5522847 46.4477153,32 47,32 Z M48,26 L52,26 L52,30 L48,30 L48,26 Z" id="Shape"/><path d="M20,37 C20.5522847,37 21,36.5522847 21,36 C21,35.4477153 20.5522847,35 20,35 L17,35 L17,34 C17,33.4477153 16.5522847,33 16,33 C15.4477153,33 15,33.4477153 15,34 L15,35 L14,35 C12.3431458,35 11,36.3431458 11,38 L11,39 C11,40.6568542 12.3431458,42 14,42 L15,42 L15,45 L12,45 C11.4477153,45 11,45.4477153 11,46 C11,46.5522847 11.4477153,47 12,47 L15,47 L15,48 C15,48.5522847 15.4477153,49 16,49 C16.5522847,49 17,48.5522847 17,48 L17,47 L18,47 C19.6568542,47 21,45.6568542 21,44 L21,43 C21,41.3431458 19.6568542,40 18,40 L17,40 L17,37 L20,37 Z M18,42 C18.5522847,42 19,42.4477153 19,43 L19,44 C19,44.5522847 18.5522847,45 18,45 L17,45 L17,42 L18,42 Z M15,40 L14,40 C13.4477153,40 13,39.5522847 13,39 L13,38 C13,37.4477153 13.4477153,37 14,37 L15,37 L15,40 Z" id="Shape"/></g></g></svg>
